<svg id="Layer_1" data-name="Layer 1" xmlns="http://www.w3.org/2000/svg" width="256" height="256" viewBox="0 0 256 256"><title>Artboard 1</title><circle cx="43.9" cy="49.2" r="34.6" fill="#673200"/><circle cx="46.4" cy="58" r="14.8" fill="#ffaaca"/><circle cx="212.1" cy="49.2" r="34.6" fill="#673200"/><circle cx="209.6" cy="58" r="14.8" fill="#ffaaca"/><circle cx="128" cy="133.2" r="108.1" fill="#673200"/><circle cx="128" cy="172.7" r="42.3" fill="#c65b00"/><path d="M174,35.4a65.6,65.6,0,0,0,61,113.3A108.2,108.2,0,0,0,174,35.4Z" fill="#c65b00"/><path d="M19.9,133.2A109,109,0,0,0,21,148.6,65.6,65.6,0,0,0,82,35.4,108.1,108.1,0,0,0,19.9,133.2Z" fill="#c65b00"/><path d="M101.2,187.1a37.2,37.2,0,0,0,52.7,0" fill="none" stroke="#000" stroke-linecap="round" stroke-linejoin="round" stroke-width="3"/><circle id="_Ellipse_" data-name="&lt;Ellipse&gt;" cx="128" cy="138.1" r="13" fill="#ffaaca"/><circle id="_Ellipse_2" data-name="&lt;Ellipse&gt;" cx="84.8" cy="106.5" r="9.3"/><circle id="_Ellipse_3" data-name="&lt;Ellipse&gt;" cx="171.2" cy="106.5" r="9.3"/></svg>